<svg width="16" height="16" viewBox="0 0 16 16" fill="none" xmlns="http://www.w3.org/2000/svg">
<path d="M4.25 11.75L6.65 6.65L11.75 4.25L9.35 9.35L4.25 11.75ZM8 7.325C7.82098 7.325 7.64929 7.39612 7.5227 7.5227C7.39612 7.64929 7.325 7.82098 7.325 8C7.325 8.17902 7.39612 8.35071 7.5227 8.4773C7.64929 8.60388 7.82098 8.675 8 8.675C8.17902 8.675 8.35071 8.60388 8.4773 8.4773C8.60388 8.35071 8.675 8.17902 8.675 8C8.675 7.82098 8.60388 7.64929 8.4773 7.5227C8.35071 7.39612 8.17902 7.325 8 7.325ZM8 0.5C8.98491 0.5 9.96018 0.693993 10.8701 1.0709C11.7801 1.44781 12.6069 2.00026 13.3033 2.6967C13.9997 3.39314 14.5522 4.21993 14.9291 5.12987C15.306 6.03982 15.5 7.01509 15.5 8C15.5 9.98912 14.7098 11.8968 13.3033 13.3033C11.8968 14.7098 9.98912 15.5 8 15.5C7.01509 15.5 6.03982 15.306 5.12987 14.9291C4.21993 14.5522 3.39314 13.9997 2.6967 13.3033C1.29018 11.8968 0.5 9.98912 0.5 8C0.5 6.01088 1.29018 4.10322 2.6967 2.6967C4.10322 1.29018 6.01088 0.5 8 0.5ZM8 2C6.4087 2 4.88258 2.63214 3.75736 3.75736C2.63214 4.88258 2 6.4087 2 8C2 9.5913 2.63214 11.1174 3.75736 12.2426C4.88258 13.3679 6.4087 14 8 14C9.5913 14 11.1174 13.3679 12.2426 12.2426C13.3679 11.1174 14 9.5913 14 8C14 6.4087 13.3679 4.88258 12.2426 3.75736C11.1174 2.63214 9.5913 2 8 2Z" fill="white" fill-opacity="0.74"/>
</svg>
