<svg width="80" height="52" viewBox="0 0 80 52" fill="none" xmlns="http://www.w3.org/2000/svg">
<path fill-rule="evenodd" clip-rule="evenodd" d="M67.6 15.704C65.7867 6.734 57.7067 0 48 0C41.1926 0 35.1757 3.32701 31.567 8.40411C31.711 8.40139 31.8553 8.40001 32 8.40001C42.1255 8.40001 50.6845 15.0885 53.2195 24.2794C60.4326 25.4575 66 31.5263 66 39C66 39.8875 65.9214 40.7562 65.7709 41.6H66.6667C74.0267 41.6 80 35.776 80 28.6C80 21.736 74.5333 16.172 67.6 15.704ZM63.7329 41.6C63.9081 40.7598 64 39.8903 64 39C64 32.136 58.5333 26.572 51.6 26.104C49.7867 17.134 41.7067 10.4 32 10.4C31.4221 10.4 30.8499 10.424 30.2844 10.471C23.3084 11.0506 17.35 15.1319 14.2667 20.904C6.24 21.736 0 28.366 0 36.4C0 45.006 7.17333 52 16 52H50.6667C57.1135 52 62.4964 47.5315 63.7329 41.6Z" fill="white"/>
</svg>
