<svg width="20" height="20" viewBox="0 0 20 20" fill="none" xmlns="http://www.w3.org/2000/svg">
<path d="M4.42188 12.9165H14.7231C17.3628 12.9165 19.3882 10.9243 19.3882 8.37598C19.3882 5.79443 17.2632 3.86035 14.4492 3.88525C13.3867 1.74365 11.436 0.506836 9.13672 0.506836C6.07373 0.506836 3.49219 2.92236 3.25977 6.01855C1.64941 6.4585 0.603516 7.81152 0.603516 9.44678C0.603516 11.5054 2.14746 12.9165 4.42188 12.9165ZM11.2451 16.8926L12.3242 15.0249C12.4736 14.7676 12.3906 14.4771 12.1499 14.3359C11.8926 14.1865 11.6104 14.2695 11.4609 14.5269L10.3735 16.4111C10.2324 16.6519 10.2988 16.9424 10.5562 17.0918C10.8052 17.2246 11.104 17.1416 11.2451 16.8926ZM13.1709 19.2666L15.6279 15.0166C15.769 14.7676 15.6943 14.4854 15.4536 14.3359C15.2212 14.1948 14.9224 14.2695 14.7729 14.5186L12.3325 18.752C12.1914 19.0093 12.2661 19.2998 12.5151 19.4492C12.7476 19.582 13.0298 19.5073 13.1709 19.2666ZM4.6377 16.9009L5.7168 15.0332C5.87451 14.7759 5.7915 14.4854 5.54248 14.3442C5.29346 14.1948 5.01123 14.2778 4.85352 14.5352L3.76611 16.4194C3.625 16.6602 3.69971 16.9507 3.95703 17.0918C4.19775 17.2329 4.49658 17.1499 4.6377 16.9009ZM6.57178 19.2749L9.02051 15.0249C9.16162 14.7759 9.09521 14.4937 8.85449 14.3442C8.61377 14.2031 8.30664 14.2778 8.16553 14.5269L5.7334 18.7603C5.59229 19.0176 5.65869 19.3081 5.90771 19.4575C6.14844 19.5903 6.43066 19.5156 6.57178 19.2749Z" fill="#4498FF"/>
</svg>
