<svg width="10" height="14" viewBox="0 0 10 14" fill="none" xmlns="http://www.w3.org/2000/svg">
<path d="M5 0.827637L4.4375 1.45764C4.4375 1.45764 3.4775 2.54514 2.51 3.95514C1.5425 5.36514 0.5 7.05264 0.5 8.67264C0.5 9.86611 0.974106 11.0107 1.81802 11.8546C2.66193 12.6985 3.80653 13.1726 5 13.1726C6.19347 13.1726 7.33807 12.6985 8.18198 11.8546C9.0259 11.0107 9.5 9.86611 9.5 8.67264C9.5 7.05264 8.4575 5.36514 7.49 3.95514C6.5225 2.54514 5.5625 1.45764 5.5625 1.45764L5 0.827637ZM5 3.17514C5.33 3.56514 5.63 3.88764 6.26 4.80264C7.1675 6.12264 8 7.80264 8 8.67264C8 10.3376 6.665 11.6726 5 11.6726C3.335 11.6726 2 10.3376 2 8.67264C2 7.80264 2.8325 6.12264 3.74 4.80264C4.37 3.88764 4.67 3.56514 5 3.17514Z" fill="white" fill-opacity="0.74"/>
</svg>
