<svg width="15" height="16" viewBox="0 0 15 16" fill="none" xmlns="http://www.w3.org/2000/svg">
<path d="M1 6.5C0.801088 6.5 0.610322 6.42098 0.46967 6.28033C0.329018 6.13968 0.25 5.94891 0.25 5.75C0.25 5.55109 0.329018 5.36032 0.46967 5.21967C0.610322 5.07902 0.801088 5 1 5H7C7.39782 5 7.77936 4.84196 8.06066 4.56066C8.34196 4.27936 8.5 3.89782 8.5 3.5C8.5 3.10218 8.34196 2.72064 8.06066 2.43934C7.77936 2.15804 7.39782 2 7 2C6.5875 2 6.2125 2.165 5.9425 2.4425C5.87424 2.51534 5.79177 2.5734 5.70018 2.6131C5.60859 2.65279 5.50982 2.67327 5.41 2.67327C5.31018 2.67327 5.21141 2.65279 5.11982 2.6131C5.02823 2.5734 4.94576 2.51534 4.8775 2.4425C4.585 2.15 4.585 1.67 4.8775 1.3775C5.425 0.8375 6.175 0.5 7 0.5C7.79565 0.5 8.55871 0.816071 9.12132 1.37868C9.68393 1.94129 10 2.70435 10 3.5C10 4.29565 9.68393 5.05871 9.12132 5.62132C8.55871 6.18393 7.79565 6.5 7 6.5H1ZM12.25 8C12.4489 8 12.6397 7.92098 12.7803 7.78033C12.921 7.63968 13 7.44891 13 7.25C13 7.05109 12.921 6.86032 12.7803 6.71967C12.6397 6.57902 12.4489 6.5 12.25 6.5C12.04 6.5 11.8525 6.5825 11.7175 6.7175C11.6481 6.78703 11.5657 6.84219 11.475 6.87982C11.3842 6.91746 11.287 6.93683 11.1887 6.93683C11.0905 6.93683 10.9933 6.91746 10.9025 6.87982C10.8118 6.84219 10.7294 6.78703 10.66 6.7175C10.375 6.425 10.375 5.9525 10.66 5.66C11.065 5.255 11.6275 5 12.25 5C12.8467 5 13.419 5.23705 13.841 5.65901C14.2629 6.08097 14.5 6.65326 14.5 7.25C14.5 7.84674 14.2629 8.41903 13.841 8.84099C13.419 9.26295 12.8467 9.5 12.25 9.5H1.75C1.55109 9.5 1.36032 9.42098 1.21967 9.28033C1.07902 9.13968 1 8.94891 1 8.75C1 8.55109 1.07902 8.36032 1.21967 8.21967C1.36032 8.07902 1.55109 8 1.75 8H12.25ZM11.5 12.5H1C0.801088 12.5 0.610322 12.421 0.46967 12.2803C0.329018 12.1397 0.25 11.9489 0.25 11.75C0.25 11.5511 0.329018 11.3603 0.46967 11.2197C0.610322 11.079 0.801088 11 1 11H11.5C12.0967 11 12.669 11.2371 13.091 11.659C13.5129 12.081 13.75 12.6533 13.75 13.25C13.75 13.8467 13.5129 14.419 13.091 14.841C12.669 15.2629 12.0967 15.5 11.5 15.5C10.8775 15.5 10.315 15.245 9.91 14.84C9.625 14.5475 9.625 14.075 9.91 13.7825C9.97939 13.713 10.0618 13.6578 10.1525 13.6202C10.2433 13.5825 10.3405 13.5632 10.4387 13.5632C10.537 13.5632 10.6342 13.5825 10.725 13.6202C10.8157 13.6578 10.8981 13.713 10.9675 13.7825C11.1025 13.9175 11.29 14 11.5 14C11.6989 14 11.8897 13.921 12.0303 13.7803C12.171 13.6397 12.25 13.4489 12.25 13.25C12.25 13.0511 12.171 12.8603 12.0303 12.7197C11.8897 12.579 11.6989 12.5 11.5 12.5Z" fill="white" fill-opacity="0.74"/>
</svg>
