<svg width="18" height="14" viewBox="0 0 18 14" fill="none" xmlns="http://www.w3.org/2000/svg">
<path d="M1.67871 3.03906C2.25977 3.03906 2.72461 2.57422 2.72461 2.00146C2.72461 1.42041 2.25977 0.955566 1.67871 0.955566C1.09766 0.955566 0.632812 1.42041 0.632812 2.00146C0.632812 2.57422 1.09766 3.03906 1.67871 3.03906ZM5.34766 2.66553H16.6865C17.0601 2.66553 17.3589 2.375 17.3589 2.00146C17.3589 1.61963 17.0601 1.3291 16.6865 1.3291H5.34766C4.96582 1.3291 4.67529 1.61963 4.67529 2.00146C4.67529 2.375 4.96582 2.66553 5.34766 2.66553ZM1.67871 8.06104C2.25977 8.06104 2.72461 7.59619 2.72461 7.01514C2.72461 6.43408 2.25977 5.96924 1.67871 5.96924C1.09766 5.96924 0.632812 6.43408 0.632812 7.01514C0.632812 7.59619 1.09766 8.06104 1.67871 8.06104ZM5.34766 7.6875H16.6865C17.0601 7.6875 17.3589 7.38867 17.3589 7.01514C17.3589 6.6416 17.0601 6.35107 16.6865 6.35107H5.34766C4.96582 6.35107 4.67529 6.6416 4.67529 7.01514C4.67529 7.38867 4.96582 7.6875 5.34766 7.6875ZM1.67871 13.083C2.25977 13.083 2.72461 12.6099 2.72461 12.0371C2.72461 11.4561 2.25977 10.9912 1.67871 10.9912C1.09766 10.9912 0.632812 11.4561 0.632812 12.0371C0.632812 12.6099 1.09766 13.083 1.67871 13.083ZM5.34766 12.7012H16.6865C17.0601 12.7012 17.3589 12.4106 17.3589 12.0371C17.3589 11.6553 17.0601 11.3647 16.6865 11.3647H5.34766C4.96582 11.3647 4.67529 11.6553 4.67529 12.0371C4.67529 12.4106 4.96582 12.7012 5.34766 12.7012Z" fill="white"/>
</svg>
